<svg width="32" height="22" viewBox="0 0 32 22" fill="none" xmlns="http://www.w3.org/2000/svg">
<g id="&#240;&#159;&#166;&#134; icon &#34;bed&#34;">
<path id="Vector" d="M26.2745 4.5H12.6118V12.0387H11.1565V9.47619C11.1549 8.02433 10.548 6.63239 9.46903 5.60575C8.39008 4.57912 6.92719 4.00164 5.40132 4H2.10196V0H0V21.5H2.10196V18.5161L29.4274 18.7241V21.5H31.5294V9.5C31.5278 8.17438 30.9737 6.90348 29.9885 5.96613C29.0034 5.02877 27.6677 4.5015 26.2745 4.5ZM2.10196 6H5.40132C6.36989 6.00104 7.29848 6.3676 7.98336 7.01927C8.66825 7.67093 9.05349 8.55447 9.05459 9.47606V12.0386H2.10196V6ZM29.4274 16.724L2.10196 16.516V14.0387H29.4274V16.724ZM29.4274 12.0387H14.7137V6.5H26.2745C27.1104 6.50091 27.9118 6.81727 28.5029 7.37968C29.094 7.9421 29.4265 8.70463 29.4274 9.5V12.0387Z" fill="#2B2B2B"/>
</g>
</svg>
