<svg width="27" height="25" viewBox="0 0 27 25" fill="none" xmlns="http://www.w3.org/2000/svg">
<g id="&#240;&#159;&#166;&#134; icon &#34;bathroom&#34;">
<path id="Vector" d="M24.3537 13.2596H4.1749V4.25964C4.17393 3.9207 4.24362 3.58495 4.37994 3.27182C4.51626 2.95868 4.7165 2.67439 4.96908 2.43538L4.9901 2.41539C5.38593 2.03931 5.89414 1.78868 6.44529 1.69774C6.99645 1.6068 7.56367 1.67998 8.06947 1.90728C7.59178 2.66298 7.39323 3.5489 7.50537 4.42427C7.61751 5.29965 8.03391 6.11425 8.68839 6.73864L9.26386 7.28619L8.20463 8.29409L9.3936 9.42539L10.4528 8.41754L16.322 2.83318L17.3812 1.82533L16.1922 0.693985L15.1329 1.70184L14.5574 1.15429C13.8684 0.50055 12.9602 0.0975642 11.991 0.0155515C11.0218 -0.0664612 10.0531 0.177699 9.25371 0.705485C8.41073 0.198942 7.41175 -0.0197366 6.42088 0.0853734C5.43 0.190483 4.50616 0.613131 3.80112 1.28389L3.7801 1.30388C3.37087 1.69113 3.04643 2.15177 2.82556 2.65912C2.60468 3.16648 2.49177 3.71048 2.49334 4.25964V13.2596H0.811768V14.8596H2.49334V16.3946C2.4933 16.5236 2.51516 16.6517 2.55808 16.7741L4.12236 21.2391C4.20583 21.4781 4.36635 21.6861 4.58111 21.8334C4.79587 21.9807 5.05395 22.0598 5.31869 22.0596H5.99657L5.38353 24.0596H7.13515L7.74824 22.0596H18.6837L19.3143 24.0596H21.0694L20.4388 22.0596H21.5282C21.7929 22.0599 22.0511 21.9807 22.2659 21.8334C22.4807 21.6861 22.6412 21.4782 22.7247 21.2391L24.2889 16.7741C24.3318 16.6517 24.3537 16.5236 24.3537 16.3946V14.8596H26.0353V13.2596H24.3537ZM9.87752 2.28563C10.3408 1.8458 10.9685 1.59878 11.623 1.59878C12.2774 1.59878 12.9051 1.8458 13.3684 2.28563L13.9438 2.83318L10.453 6.15463L9.87752 5.60718C9.41529 5.16638 9.15569 4.56911 9.15569 3.94641C9.15569 3.32371 9.41529 2.72644 9.87752 2.28563ZM22.6722 16.3296L21.2254 20.4596H5.62168L4.1749 16.3296V14.8596H22.6722V16.3296Z" fill="#2B2B2B"/>
</g>
</svg>
