<svg width="15" height="23" viewBox="0 0 15 23" fill="none" xmlns="http://www.w3.org/2000/svg">
<path id="Vector" d="M9.22667 9.83836H9.22611H5.16595C4.6764 9.83836 4.2069 9.64389 3.86073 9.29772C3.51457 8.95156 3.32009 8.48206 3.32009 7.99251C3.32009 7.50295 3.51457 7.03345 3.86073 6.68729C4.2069 6.34112 4.6764 6.14665 5.16595 6.14665H11.6622H12.1622V5.64665V4.02258V3.52258H11.6622H8.71107V1V0.5H8.21107H6.58701H6.08701V1V3.52258H5.16595C3.98045 3.52258 2.84351 3.99352 2.00524 4.83179C1.16697 5.67007 0.69603 6.80701 0.69603 7.99251C0.69603 9.178 1.16697 10.3149 2.00524 11.1532C2.84351 11.9915 3.98045 12.4624 5.16595 12.4624H9.22555C9.71508 12.463 10.1844 12.6577 10.5306 13.0038C10.8767 13.35 11.0714 13.8193 11.072 14.3088V14.4882C11.0714 14.9777 10.8767 15.4471 10.5306 15.7932C10.1844 16.1394 9.71508 16.3341 9.22555 16.3346H2.35394H1.85394V16.8346V18.4587V18.9587H2.35394H6.08701V21.3008V21.8008H6.58701H8.21107H8.71107V21.3008V18.9587H9.22611H9.22667C10.4116 18.9573 11.5476 18.486 12.3855 17.6482C13.2234 16.8103 13.6947 15.6743 13.696 14.4893V14.4888V14.3083V14.3077C13.6947 13.1228 13.2234 11.9868 12.3855 11.1489C11.5476 10.311 10.4116 9.8397 9.22667 9.83836Z" fill="#00CE3A" stroke="#00CE3A"/>
</svg>
