<svg width="21" height="23" viewBox="0 0 21 23" fill="none" xmlns="http://www.w3.org/2000/svg">
<g id="&#240;&#159;&#166;&#134; icon &#34;fire&#34;">
<path id="Vector" d="M12.937 11.2528C13.1966 10.8265 13.465 10.3857 13.73 9.93118C14.6171 8.41044 14.7799 6.87814 14.214 5.37676C13.0722 2.34747 9.25517 0.501751 8.37151 0.207261L7.75015 0L6.78035 1.93998L7.24835 2.32231C7.25359 2.32651 7.77342 2.78073 7.80807 3.4693C7.83766 4.0571 7.51542 4.69229 6.85054 5.35736C6.38881 5.81904 5.88206 6.26547 5.34552 6.73805C3.08807 8.72608 0.529419 10.98 0.529419 15.2439C0.529419 15.3024 0.52997 15.3607 0.531071 15.4185C0.547431 16.3595 0.749519 17.2879 1.12573 18.1505C1.50194 19.0131 2.04485 19.7928 2.72329 20.445C4.08563 21.7701 5.91227 22.5097 7.81274 22.5056H12.16L11.6234 21.4166C9.44298 16.9914 10.9849 14.459 12.937 11.2528Z" fill="#FF1111"/>
<path id="Vector_2" d="M20.3523 15.1955C20.3397 15.1456 20.3266 15.0955 20.3129 15.0451C19.7679 13.047 16.7512 10.4778 16.4091 10.1915L15.722 9.61646L15.2714 10.3909C14.2446 12.1563 13.3634 13.7664 12.9793 15.5931C12.5413 17.6763 12.8362 19.7935 13.8809 22.0658L14.0829 22.5056H14.5964C15.5008 22.5082 16.3937 22.3032 17.2063 21.9063C18.0189 21.5094 18.7296 20.9312 19.2835 20.2163C19.8341 19.5171 20.2167 18.7007 20.402 17.8302C20.5873 16.9598 20.5703 16.0583 20.3523 15.1955Z" fill="#FF1111"/>
</g>
</svg>
